<mxfile host="app.diagrams.net" modified="2023-09-27T07:37:13.542Z" agent="Mozilla/5.0 (Macintosh; Intel Mac OS X 10_15_7) AppleWebKit/537.36 (KHTML, like Gecko) Chrome/117.0.0.0 Safari/537.36" version="21.8.2" etag="0wv33hIio8ceKRcZRgn8" type="github">
  <diagram name="Page-1" id="p8c2hrYilYBaHEYgoHyb">
    <mxGraphModel>
      <root>
        <mxCell id="0" />
        <mxCell id="1" parent="0" />
      </root>
    </mxGraphModel>
  </diagram>
</mxfile>
